<?xml version="1.0" standalone="no"?>
<!DOCTYPE svg PUBLIC "-//W3C//DTD SVG 20010904//EN"
 "http://www.w3.org/TR/2001/REC-SVG-20010904/DTD/svg10.dtd">
<svg version="1.0" xmlns="http://www.w3.org/2000/svg"
 width="1024.000000pt" height="1024.000000pt" viewBox="0 0 1024.000000 1024.000000"
 preserveAspectRatio="xMidYMid meet">
<metadata>
Created by potrace 1.11, written by Peter Selinger 2001-2013
</metadata>
<g transform="translate(0.000000,1024.000000) scale(0.100000,-0.100000)"
fill="#000000" stroke="none">
<path d="M1115 10226 c-137 -37 -258 -121 -353 -247 -99 -131 -137 -285 -105
-424 36 -159 225 -452 442 -685 73 -79 87 -109 75 -158 -8 -33 -15 -38 -91
-68 -103 -42 -154 -74 -218 -138 -147 -147 -160 -381 -39 -675 33 -79 52 -117
129 -256 48 -86 186 -283 254 -363 70 -82 170 -187 493 -513 112 -113 253
-259 313 -324 207 -223 228 -245 244 -264 9 -10 41 -47 73 -82 31 -35 67 -77
79 -94 13 -16 26 -32 30 -35 11 -9 145 -195 169 -235 13 -22 27 -42 30 -45 13
-10 99 -169 143 -261 128 -272 186 -566 155 -791 l-8 -61 42 -56 c23 -30 48
-62 54 -71 34 -41 227 -294 237 -311 6 -10 15 -19 18 -19 11 0 31 76 54 205 8
44 17 91 20 105 3 14 8 45 11 70 3 25 7 52 9 60 2 8 7 44 10 80 3 36 8 83 10
105 3 22 5 82 5 134 l1 95 68 -150 c162 -358 331 -669 511 -940 84 -126 232
-332 276 -384 12 -14 57 -68 100 -120 44 -52 135 -152 203 -222 l123 -127 -5
-325 c-3 -179 -7 -329 -10 -333 -3 -4 -7 -42 -11 -84 -18 -218 -73 -460 -128
-558 -11 -19 -75 -109 -142 -200 -271 -366 -400 -587 -475 -808 -43 -130 -43
-132 11 -201 26 -33 71 -80 99 -104 28 -23 57 -48 64 -55 24 -23 151 -100 215
-130 119 -57 299 -111 440 -132 139 -21 191 -25 365 -25 318 -1 525 32 755
123 167 65 331 176 433 293 79 91 76 83 57 157 -61 239 -192 471 -503 891 -71
96 -134 186 -139 200 -5 13 -16 38 -23 55 -16 34 -61 200 -71 259 -3 21 -8 48
-10 60 -4 19 -12 91 -29 241 -3 28 -8 192 -11 365 l-5 315 118 120 c139 142
152 157 264 295 165 202 326 433 461 660 94 157 131 227 233 430 87 173 128
260 183 391 l19 44 1 -68 c0 -58 11 -220 17 -267 1 -8 5 -42 10 -75 4 -33 9
-69 11 -80 2 -10 6 -37 9 -60 10 -67 45 -233 59 -272 10 -30 14 -34 24 -22 19
22 119 151 235 306 l108 141 -9 56 c-11 69 -7 239 8 331 15 97 53 235 91 335
33 87 143 307 177 357 11 15 43 64 72 108 53 79 181 248 241 315 197 223 400
438 678 719 438 444 499 513 649 740 137 208 246 454 269 606 11 75 8 205 -6
250 -49 157 -184 281 -368 335 -39 12 -43 16 -49 55 -7 52 7 82 73 150 26 28
66 73 88 100 22 28 43 52 46 55 3 3 25 32 50 65 24 33 47 62 50 65 17 15 115
177 154 255 75 153 87 259 46 394 -31 102 -88 189 -181 277 -118 112 -248 165
-392 160 -63 -2 -89 -9 -140 -34 -35 -17 -74 -42 -86 -55 l-22 -23 16 -105
c20 -126 22 -371 5 -454 -30 -140 -81 -256 -172 -392 -46 -68 -174 -225 -188
-230 -3 -2 -17 22 -30 52 -30 70 -120 169 -209 228 -197 134 -422 163 -642 82
-101 -37 -221 -50 -450 -50 -340 1 -578 33 -840 112 -104 31 -275 91 -325 113
-50 22 -245 90 -288 101 -81 20 -267 -2 -352 -42 -11 -5 -51 -20 -89 -34 l-68
-26 -103 41 c-132 51 -201 67 -302 68 -92 1 -127 -9 -344 -91 -79 -30 -175
-66 -214 -80 -74 -28 -262 -84 -302 -91 -13 -3 -31 -7 -41 -10 -9 -3 -35 -8
-57 -11 -22 -4 -47 -8 -55 -10 -8 -2 -40 -6 -70 -10 -30 -4 -66 -8 -79 -10
-119 -19 -479 -26 -634 -12 -48 4 -125 19 -170 33 -153 47 -206 56 -312 51
-150 -6 -277 -53 -403 -150 -96 -73 -192 -199 -192 -252 0 -20 -23 3 -106 105
-160 198 -235 350 -268 543 -17 97 -12 318 9 437 18 99 18 96 -17 125 -83 71
-231 101 -343 71z m1074 -1341 c151 -27 288 -110 444 -269 l49 -49 3 -196 c3
-189 10 -350 20 -476 15 -197 17 -220 30 -330 23 -217 23 -212 45 -365 17
-117 20 -135 24 -160 2 -14 10 -57 16 -97 6 -39 13 -77 14 -85 2 -7 6 -31 10
-53 4 -22 11 -60 17 -85 5 -25 11 -61 14 -80 9 -55 95 -432 106 -460 5 -14 10
-34 12 -45 20 -110 195 -679 271 -879 14 -37 26 -71 26 -75 0 -3 -23 32 -50
78 -28 46 -50 85 -50 87 0 6 -165 242 -214 304 -153 199 -333 396 -717 785
-280 284 -408 417 -456 471 -10 12 -38 44 -63 71 -65 73 -83 94 -168 203 -107
137 -109 139 -184 258 -178 282 -261 533 -198 600 41 44 135 19 235 -62 57
-47 78 -56 127 -56 53 0 109 27 125 60 34 67 -12 268 -109 474 -74 158 -93
220 -72 241 16 16 41 10 91 -22 38 -23 160 -120 203 -160 67 -63 150 -83 202
-49 37 24 62 93 56 154 -7 69 -38 127 -107 200 -35 37 -55 65 -48 67 36 12
231 12 296 0z m6158 3 c15 -2 8 -11 -54 -76 -83 -87 -113 -164 -98 -258 7 -52
50 -99 94 -106 36 -5 95 13 127 39 12 10 64 52 116 95 237 194 278 160 143
-121 -97 -201 -149 -428 -111 -487 38 -56 148 -72 207 -30 145 104 202 129
259 111 119 -38 -33 -444 -298 -793 -165 -219 -292 -360 -643 -717 -676 -685
-853 -893 -1071 -1257 -68 -112 -78 -125 -57 -71 46 117 177 512 204 613 2 8
11 40 20 70 18 61 24 86 30 115 3 11 11 43 20 70 13 42 103 425 119 505 3 14
7 34 9 45 3 11 8 40 13 65 4 25 8 47 9 50 1 3 5 25 9 50 5 25 10 54 12 65 6
28 42 251 49 300 3 23 7 50 9 60 4 22 13 93 21 170 3 28 8 61 10 75 2 14 7 57
11 95 4 39 8 84 10 100 1 17 6 68 9 115 4 47 8 101 10 120 7 68 17 317 20 480
2 91 4 171 4 178 1 8 34 45 74 85 151 148 269 214 437 245 36 7 214 7 277 0z
m-5043 -3734 c3 -8 2 -12 -4 -9 -6 3 -10 10 -10 16 0 14 7 11 14 -7z"/>
</g>
</svg>
